<?xml version="1.0" encoding="iso-8859-1"?>
<!-- Generator: Adobe Illustrator 15.1.0, SVG Export Plug-In . SVG Version: 6.00 Build 0)  -->
<!DOCTYPE svg PUBLIC "-//W3C//DTD SVG 1.1//EN" "http://www.w3.org/Graphics/SVG/1.1/DTD/svg11.dtd">
<svg version="1.1" id="Layer_1" xmlns="http://www.w3.org/2000/svg" xmlns:xlink="http://www.w3.org/1999/xlink" x="0px" y="0px"
	 width="32px" height="32px" viewBox="0 0 32 32" style="enable-background:new 0 0 32 32;" xml:space="preserve">
<circle id="circle_x5F_bg_17_" style="fill:#CF4832;" cx="16" cy="16" r="16.005"/>
<g>
	<polygon style="fill:#FFFFFF;" points="24.376,9.896 22.499,9.896 22.499,13.646 18.747,13.646 18.747,15.523 22.499,15.523 
		22.499,19.273 24.376,19.273 24.376,15.523 28.126,15.523 28.126,13.646 24.376,13.646 	"/>
</g>
<g>
	<path style="fill:#FFFFFF;" d="M14.933,25.068c-0.74-0.559-2.355-1.699-2.355-2.465c0-0.898,0.256-1.342,1.605-2.396
		c1.387-1.082,2.367-2.51,2.367-4.279c0-1.93-0.789-3.678-2.27-4.527h2.102l1.787-1.879c0,0-5.91,0-8.008,0
		c-4.061,0-7.447,2.996-7.447,6.291c0,3.367,2.225,6.051,6.045,6.051c0.264,0,0.523-0.01,0.775-0.027
		C9.286,22.309,9.11,22.84,9.11,23.395c0,0.938,0.518,1.473,1.148,2.09c-0.48,0-0.941,0.01-1.449,0.01
		c-1.805,0-3.395,0.486-4.67,1.254c0.396,0.436,0.814,0.85,1.254,1.238c1.1-0.949,2.709-1.561,4.471-1.541
		c0.748,0.004,1.449,0.127,2.082,0.332c1.746,1.215,3.156,1.971,3.508,3.357c0.066,0.275,0.102,0.566,0.102,0.861
		c0,0.34-0.033,0.666-0.098,0.982c0.174,0.006,0.342,0.025,0.518,0.025c0.639,0,1.264-0.047,1.883-0.119
		c0.119-0.406,0.186-0.818,0.186-1.232C18.044,28.225,17.521,27.008,14.933,25.068z M10.306,20.645
		c-2.156-0.066-4.209-2.049-4.58-4.881c-0.375-2.834,1.07-5.004,3.23-4.939c2.158,0.064,4.004,2.389,4.377,5.223
		S12.464,20.707,10.306,20.645z"/>
</g>
</svg>
