<?xml version="1.0" encoding="utf-8"?>
<!-- Generator: Adobe Illustrator 16.0.4, SVG Export Plug-In . SVG Version: 6.00 Build 0)  -->
<!DOCTYPE svg PUBLIC "-//W3C//DTD SVG 1.1//EN" "http://www.w3.org/Graphics/SVG/1.1/DTD/svg11.dtd">
<svg version="1.1" id="Layer_1" xmlns="http://www.w3.org/2000/svg" xmlns:xlink="http://www.w3.org/1999/xlink" x="0px" y="0px"
	 width="49.248px" height="49.248px" viewBox="3.723 5.158 49.248 49.248" enable-background="new 3.723 5.158 49.248 49.248"
	 xml:space="preserve">
<path fill="#FFFFFF" d="M28.221,49.656c10.753,0,19.505-8.742,19.505-19.495c0-4.243-1.385-8.172-3.699-11.374
	c-3.534-4.904-9.306-8.131-15.806-8.131c-6.505,0-12.261,3.227-15.811,8.131c-2.31,3.201-3.685,7.131-3.685,11.374
	C8.726,40.914,17.468,49.656,28.221,49.656z"/>
<polygon fill="#A47559" points="38.512,24.392 38.512,20.445 38.512,19.855 37.922,19.857 33.975,19.871 33.99,24.407 "/>
<path fill="#A47559" d="M28.225,34.868c2.598,0,4.713-2.113,4.713-4.711c0-1.025-0.334-1.975-0.894-2.748
	c-0.854-1.186-2.248-1.965-3.819-1.965c-1.572,0-2.963,0.779-3.82,1.965c-0.559,0.773-0.891,1.723-0.891,2.748
	C23.514,32.755,25.627,34.868,28.225,34.868z"/>
<path fill="#A47559" d="M28.348,5.158c-13.601,0-24.625,11.023-24.625,24.623s11.024,24.625,24.625,24.625
	c13.598,0,24.623-11.025,24.623-24.625S41.945,5.158,28.348,5.158z M41.611,27.409V38.37c0,2.853-2.322,5.172-5.174,5.172H20.012
	c-2.854,0-5.174-2.319-5.174-5.172V27.409v-5.464c0-2.854,2.32-5.173,5.174-5.173h16.425c2.852,0,5.174,2.319,5.174,5.173V27.409z"
	/>
<path fill="#A47559" d="M35.545,30.157c0,4.035-3.282,7.32-7.319,7.32s-7.318-3.285-7.318-7.32c0-0.973,0.193-1.898,0.537-2.748
	h-3.996V38.37c0,1.414,1.15,2.564,2.564,2.564h16.425c1.414,0,2.563-1.15,2.563-2.564V27.409h-3.998
	C35.35,28.259,35.545,29.185,35.545,30.157z"/>
</svg>
