<?xml version="1.0" encoding="utf-8"?>
<!-- Generator: Adobe Illustrator 16.0.4, SVG Export Plug-In . SVG Version: 6.00 Build 0)  -->
<!DOCTYPE svg PUBLIC "-//W3C//DTD SVG 1.1//EN" "http://www.w3.org/Graphics/SVG/1.1/DTD/svg11.dtd">
<svg version="1.1" id="Layer_1" xmlns="http://www.w3.org/2000/svg" xmlns:xlink="http://www.w3.org/1999/xlink" x="0px" y="0px"
	 width="32px" height="32px" viewBox="0 0 32 32" enable-background="new 0 0 32 32" xml:space="preserve">
<g id="Layer_1">
	<g>
		<path fill="#55ACEE" d="M0,0v32h32V0H0z M25.792,10.979l0.017,0.653c0,6.675-5.084,14.375-14.375,14.375
			c-2.854,0-5.51-0.838-7.745-2.271c0.394,0.047,0.796,0.07,1.205,0.07c2.366,0,4.545-0.809,6.274-2.162
			c-2.209-0.041-4.075-1.502-4.719-3.509c0.31,0.058,0.625,0.089,0.951,0.089c0.46,0,0.907-0.061,1.331-0.176
			c-2.312-0.465-4.054-2.506-4.054-4.955v-0.062c0.683,0.377,1.461,0.605,2.289,0.631c-1.356-0.907-2.248-2.451-2.248-4.204
			c0-0.928,0.251-1.796,0.684-2.54c2.491,3.055,6.215,5.066,10.414,5.279c-0.087-0.371-0.131-0.756-0.131-1.152
			c0-2.79,2.261-5.053,5.052-5.053c1.453,0,2.766,0.614,3.687,1.595c1.152-0.225,2.231-0.645,3.21-1.226
			c-0.377,1.182-1.179,2.172-2.222,2.796c1.021-0.121,1.993-0.394,2.901-0.795C27.634,9.378,26.777,10.267,25.792,10.979z"/>
	</g>
	<g>
		<path fill="#55ACEE" d="M0,0v32h32V0H0z M25.792,10.979l0.017,0.653c0,6.675-5.084,14.375-14.375,14.375
			c-2.854,0-5.51-0.838-7.745-2.271c0.394,0.047,0.796,0.07,1.205,0.07c2.366,0,4.545-0.809,6.274-2.162
			c-2.209-0.041-4.075-1.502-4.719-3.509c0.31,0.058,0.625,0.089,0.951,0.089c0.46,0,0.907-0.061,1.331-0.176
			c-2.312-0.465-4.054-2.506-4.054-4.955v-0.062c0.683,0.377,1.461,0.605,2.289,0.631c-1.356-0.907-2.248-2.451-2.248-4.204
			c0-0.928,0.251-1.796,0.684-2.54c2.491,3.055,6.215,5.066,10.414,5.279c-0.087-0.371-0.131-0.756-0.131-1.152
			c0-2.79,2.261-5.053,5.052-5.053c1.453,0,2.766,0.614,3.687,1.595c1.152-0.225,2.231-0.645,3.21-1.226
			c-0.377,1.182-1.179,2.172-2.222,2.796c1.021-0.121,1.993-0.394,2.901-0.795C27.634,9.378,26.777,10.267,25.792,10.979z"/>
	</g>
</g>
</svg>
