<?xml version="1.0" encoding="iso-8859-1"?>
<!-- Generator: Adobe Illustrator 15.1.0, SVG Export Plug-In . SVG Version: 6.00 Build 0)  -->
<!DOCTYPE svg PUBLIC "-//W3C//DTD SVG 1.1//EN" "http://www.w3.org/Graphics/SVG/1.1/DTD/svg11.dtd">
<svg version="1.1" id="Layer_1" xmlns="http://www.w3.org/2000/svg" xmlns:xlink="http://www.w3.org/1999/xlink" x="0px" y="0px"
	 width="32px" height="32px" viewBox="0 0 32 32" style="enable-background:new 0 0 32 32;" xml:space="preserve">
<circle style="fill:#2AA7DE;" cx="16" cy="16" r="16"/>
<path style="fill:#FFFFFF;" d="M24.535,11.723c-0.566,0.252-1.178,0.422-1.814,0.498c0.65-0.391,1.152-1.01,1.389-1.748
	c-0.611,0.363-1.287,0.625-2.008,0.768c-0.574-0.613-1.396-0.998-2.305-0.998c-1.744,0-3.161,1.414-3.161,3.158
	c0,0.248,0.029,0.49,0.082,0.721c-2.625-0.131-4.953-1.389-6.512-3.299c-0.273,0.465-0.426,1.008-0.426,1.586
	c0,1.098,0.555,2.064,1.404,2.631c-0.52-0.018-1.004-0.16-1.432-0.396c0,0.014,0,0.027,0,0.039c0,1.531,1.09,2.808,2.533,3.097
	c-0.264,0.074-0.543,0.111-0.83,0.111c-0.205,0-0.402-0.02-0.596-0.057c0.402,1.256,1.57,2.168,2.951,2.195
	c-1.082,0.846-2.443,1.352-3.924,1.352c-0.254,0-0.506-0.016-0.754-0.045c1.398,0.896,3.059,1.42,4.844,1.42
	c5.811,0,8.989-4.814,8.989-8.988c0-0.137-0.004-0.273-0.01-0.41C23.574,12.915,24.109,12.358,24.535,11.723z"/>
</svg>
