<?xml version="1.0" encoding="utf-8"?>
<!-- Generator: Adobe Illustrator 16.0.4, SVG Export Plug-In . SVG Version: 6.00 Build 0)  -->
<!DOCTYPE svg PUBLIC "-//W3C//DTD SVG 1.1//EN" "http://www.w3.org/Graphics/SVG/1.1/DTD/svg11.dtd">
<svg version="1.1" xmlns="http://www.w3.org/2000/svg" xmlns:xlink="http://www.w3.org/1999/xlink" x="0px" y="0px" width="538.2px"
	 height="538.3px" viewBox="0 0 538.2 538.3" enable-background="new 0 0 538.2 538.3" xml:space="preserve">
<g id="Layer_1">
	<g>
		<g>
			<path fill="#FFFFFF" d="M269.1,538.3C120.7,538.3,0,417.5,0,269.1C0,120.7,120.7,0,269.1,0c148.4,0,269.1,120.7,269.1,269.1
				C538.2,417.5,417.5,538.3,269.1,538.3"/>
			<path fill="#00A94F" d="M269.1,519.7C131,519.7,18.6,407.3,18.6,269.1C18.6,131,131,18.6,269.1,18.6
				c138.1,0,250.5,112.4,250.5,250.5C519.7,407.3,407.3,519.7,269.1,519.7 M269.1,96.1c-95.4,0-173,77.6-173,173
				c0,95.4,77.6,173,173,173c95.4,0,173-77.6,173-173C442.2,173.7,364.5,96.1,269.1,96.1"/>
			<path fill="#00A94F" d="M305.9,268.3c10.6,0,19.2,8.6,19.2,19.2c0,10.6-8.6,19.2-19.2,19.2c-10.6,0-19.2-8.6-19.2-19.2
				C286.7,276.9,295.3,268.3,305.9,268.3 M406.5,338.6c4.9,8.5,0.9,15.5-9,15.5H140.7c-9.9,0-13.9-7-9-15.5l128.5-222.5
				c4.9-8.6,13-8.6,17.9,0L406.5,338.6 M262.3,265.5c0,0,0.4-0.2,0.4-0.5c0.1-0.3-0.2-0.7-0.3-0.8c-7-9.1-18-14.9-30.2-14.9
				c-21.1,0-38.3,17.2-38.3,38.3c0,21.1,17.2,38.2,38.3,38.2c11.6,0,22-5.2,29-13.3c0-0.1,0.1-0.1,0.1-0.2c1-1.3-0.2-2-0.2-2
				l-14.3-8.3c0,0-1.2-0.8-2.2,0.2c-0.1,0.1-0.2,0.2-0.4,0.3c-3.3,2.6-7.5,4.3-12,4.3c-10.6,0-19.2-8.6-19.2-19.2
				c0-10.6,8.6-19.2,19.2-19.2c5.2,0,9.9,2.1,13.4,5.5h0c0.9,0.8,1.8,0.3,1.8,0.3L262.3,265.5 M260,218.8c1,2.3,2.9,2.4,4.2,0.3
				l18.1-29.3c2-2.9,3.2-2.9,5.7-0.9l28.4,24.3c1.9,1.6,2.4,1.2,1.2-1l-46.3-80.7c-1.2-2.2-3.2-2.2-4.4,0l-39.7,69.2
				c-1.2,2.2-0.4,3,1.8,1.8l15-7.7c3.5-1.7,4.3-1,5.8,2L260,218.8 M305.9,325.8c21.1,0,38.3-17.2,38.3-38.2
				c0-21.1-17.2-38.3-38.3-38.3c-21.1,0-38.3,17.2-38.3,38.3C267.6,308.6,284.8,325.8,305.9,325.8"/>
			<g>
				<path fill="#FFFFFF" d="M56.5,176.4c2.2-5.2,5.4-8.3,10.1-10.5c0.6-0.3,1.2,0,1.5,0.6l2.5,5.8c0.2,0.5,0,1.1-0.5,1.3
					c-2.5,1.2-4.5,3.4-5.6,5.9c-2.5,5.9,0.6,12.2,6.4,14.6c5.8,2.4,12.3,0.1,14.8-5.8c1-2.4,1.2-5.4,0.4-8c-0.2-0.5,0.1-1.2,0.6-1.3
					l6-2.2c0.5-0.2,1.2,0.1,1.4,0.6c1.9,5,1.7,10.1-0.3,14.7c-4.3,10.4-16.1,15.3-26.4,10.9C57,198.6,52.2,186.8,56.5,176.4z"/>
				<path fill="#FFFFFF" d="M97.6,112.9c7.6-8.3,20.3-8.9,28.6-1.3c8.3,7.6,8.9,20.2,1.3,28.5c-7.6,8.3-20.2,8.9-28.5,1.4
					C90.8,134,90.1,121.3,97.6,112.9z M120.9,134.1c4.2-4.6,3.8-11.7-0.7-15.8c-4.6-4.2-11.8-3.9-15.9,0.7
					c-4.1,4.5-3.7,11.7,0.8,15.9C109.7,139,116.8,138.6,120.9,134.1z"/>
				<path fill="#FFFFFF" d="M148.1,72.9c-0.3-0.5-0.1-1.2,0.4-1.5l5.8-3.3c0.5-0.3,1.2-0.1,1.4,0.4l14.7,26.2l11.7-6.5
					c0.5-0.3,1.2-0.1,1.5,0.4l3,5.3c0.3,0.5,0.1,1.2-0.4,1.5l-18.4,10.3c-0.5,0.3-1.2,0.1-1.5-0.4L148.1,72.9z"/>
				<path fill="#FFFFFF" d="M224.8,41.4c11-2.1,21.6,5,23.7,16c2.1,11-5,21.5-16,23.7c-11,2.1-21.5-4.9-23.6-15.9
					C206.8,54.2,213.8,43.6,224.8,41.4z M230.8,72.3c6.1-1.2,10.1-7.1,8.9-13.1c-1.2-6.1-7.1-10.1-13.2-8.9c-6,1.2-10,7.2-8.8,13.2
					C218.9,69.5,224.8,73.5,230.8,72.3z"/>
				<path fill="#FFFFFF" d="M289.9,39.3c0.1-0.6,0.6-1,1.2-0.9l16.6,2.5c6.7,1,11.3,7.2,10.3,13.8c-0.8,5.1-4.8,8.7-9.9,9.9
					l5.5,15.3c0.3,0.8-0.2,1.6-1.2,1.5l-7.4-1.1c-0.4-0.1-0.7-0.4-0.8-0.6L299,63.8l-3.8-0.6L293,77.4c-0.1,0.6-0.7,1-1.2,0.9
					l-6.6-1c-0.6-0.1-1-0.7-0.9-1.2L289.9,39.3z M304.5,57.4c2.3,0.3,4.5-1.5,4.9-3.8c0.4-2.3-1.3-4.5-3.6-4.9l-8.2-1.3l-1.3,8.7
					L304.5,57.4z"/>
				<path fill="#FFFFFF" d="M341,88.5L374,63c0.3-0.2,0.8-0.3,1.1-0.1l0.5,0.3c0.3,0.2,0.6,0.6,0.6,1l-1.7,41.7
					c0,0.8-0.8,1.2-1.5,0.9l-5.5-2.9c-0.9-0.5-1.1-1-1.1-2.2l0.2-4.9l-13.6-7l-3.9,3.1c-0.6,0.5-1.4,0.8-2.4,0.3l-5.5-2.8
					C340.4,89.9,340.4,89,341,88.5z M367.1,88.4l0.4-10.2l-0.1,0l-8,6.3L367.1,88.4z"/>
				<path fill="#FFFFFF" d="M425,98.9c0.4-0.4,1.1-0.4,1.5,0l9.5,9.9c7.5,7.8,7.2,20.4-0.6,27.8c-7.9,7.5-20.4,7.2-27.9-0.7L398,126
					c-0.4-0.4-0.3-1.1,0.1-1.5L425,98.9z M413.1,129.8c4.4,4.6,11.2,4.5,15.8,0.1c4.6-4.4,5-11.2,0.7-15.8l-3.7-3.9l-16.5,15.7
					L413.1,129.8z"/>
				<path fill="#FFFFFF" d="M481.9,176.8c4.5,10.3-0.3,22.2-10.6,26.6c-10.3,4.5-22.1-0.2-26.5-10.6c-4.5-10.3,0.2-22.1,10.5-26.5
					C465.6,161.9,477.5,166.5,481.9,176.8z M453.1,189.3c2.5,5.7,9.1,8.3,14.7,5.9c5.7-2.4,8.4-9.1,5.9-14.8
					c-2.4-5.6-9.1-8.2-14.8-5.8C453.3,177.1,450.6,183.7,453.1,189.3z"/>
			</g>
			<g>
				<path fill="#6A737B" d="M236.2,384.4h2.8v10.9c0,1.3-0.3,2.5-0.8,3.3c-0.8,1.3-2.4,2.1-4.4,2.1c-2,0-3.5-0.7-4.4-2
					c-0.5-0.8-0.8-2-0.8-3.3v-10.9h2.8v-3.3H222v3.3h2.8v11c0,2.3,0.5,4.2,1.5,5.6c1.6,2.1,4.3,3.4,7.6,3.4c3.2,0,6-1.2,7.5-3.4
					c1-1.5,1.6-3.5,1.6-5.6v-11h2.7v-3.3h-9.5V384.4z"/>
				<path fill="#6A737B" d="M271.8,390.6l-0.2-0.1c-2.6-1-4.2-1.7-4.2-3.6c0-1.9,1.8-2.6,3.4-2.6c1.6,0,3.3,0.6,3.3,1.5v2h3.8v-3
					c0-2.7-3.6-4.1-7.1-4.1c-3.6,0-7.5,1.7-7.5,6.3c0,4.3,3.5,5.7,6.1,6.6l0.5,0.2c2.4,0.9,4.5,1.8,4.5,3.9c0,2.2-2,2.9-3.9,2.9
					c-1.9,0-3.9-0.8-3.9-2.1v-2.1H263v2.7c0,3.3,3.9,5.1,7.7,5.1c4.7,0,7.9-2.7,7.9-6.8C278.6,393.1,275,391.7,271.8,390.6z"/>
				<path fill="#6A737B" d="M315.3,400.6l-6.9-19.2l-0.1-0.3h-4.1l-7,19.5H295v3.3h8.5v-3.3h-2.2l1.4-4h7.2l1.4,4h-2.2v3.3h8.5v-3.3
					H315.3z M306.3,386.2C306.3,386.2,306.3,386.2,306.3,386.2C306.3,386.2,306.3,386.2,306.3,386.2l2.5,7.1h-5L306.3,386.2z"/>
			</g>
			<g>
				<path fill="#00A94F" d="M473.7,421.8v6.7h-1v-6.7h-2.2v-0.9h5.5v0.9H473.7z M481.6,428.5l-0.9-5.2l-1.5,5.3h-0.6l-1.6-5.3
					l-0.8,5.3h-1l1.2-7.7h0.8l1.8,5.9l1.8-5.9h0.8l1.2,7.7H481.6z"/>
			</g>
		</g>
		<g>
			<path fill="#FFFFFF" d="M111.2,389.7c0.3-0.3,0.9-0.2,1.1,0.1l0.7,0.8l-1,24.3l0,0l11.7-10.4c0.3-0.3,0.9-0.3,1.2,0.1l3.5,3.9
				c0.3,0.3,0.3,0.9-0.1,1.2l-22.1,19.7c-0.3,0.3-0.9,0.2-1.1-0.1l-0.5-0.5c-0.1-0.1-0.2-0.4-0.2-0.6l1.5-24.6l0,0l-12.3,10.9
				c-0.3,0.3-0.9,0.3-1.2-0.1l-3.5-3.9c-0.3-0.3-0.3-0.9,0.1-1.2L111.2,389.7z"/>
			<path fill="#FFFFFF" d="M155.6,430.1c7.2,5,9,14.8,4,22.1c-5,7.2-14.8,9-22,4c-7.2-5-9-14.7-4-22
				C138.6,426.9,148.4,425.1,155.6,430.1z M141.6,450.3c4,2.8,9.5,1.8,12.2-2.2c2.8-4,1.8-9.5-2.2-12.3c-3.9-2.7-9.5-1.7-12.2,2.3
				C136.7,442.1,137.7,447.6,141.6,450.3z"/>
			<path fill="#FFFFFF" d="M184.4,447.9c0.2-0.4,0.7-0.6,1.1-0.4l1,0.4l10.4,22l0,0l5.6-14.6c0.2-0.4,0.6-0.7,1.1-0.5l4.9,1.9
				c0.4,0.2,0.6,0.7,0.5,1.1l-10.5,27.6c-0.2,0.4-0.7,0.6-1.1,0.4l-0.7-0.3c-0.1,0-0.4-0.3-0.5-0.4l-10-22.5l0,0l-5.8,15.3
				c-0.2,0.4-0.6,0.7-1.1,0.5l-4.9-1.9c-0.4-0.2-0.6-0.7-0.5-1.1L184.4,447.9z"/>
			<path fill="#FFFFFF" d="M229.9,462.7c0.1-0.4,0.5-0.8,0.9-0.7l10.5,1.5c5.4,0.8,9.1,5.7,8.4,11c-0.8,5.4-5.8,9.2-11.1,8.4
				l-4.6-0.6l-1.4,10.2c-0.1,0.4-0.5,0.8-0.9,0.7l-5.1-0.7c-0.5-0.1-0.8-0.5-0.7-0.9L229.9,462.7z M239.1,476.5c1.9,0.3,3.6-1,3.9-3
				c0.3-1.8-1.1-3.4-3-3.7l-4.1-0.6l-0.9,6.7L239.1,476.5z"/>
			<path fill="#FFFFFF" d="M270.4,466.2c0-0.4,0.3-0.9,0.8-0.9l13.1-1c5.3-0.4,9.9,3.6,10.3,8.8c0.3,4-2.1,7.5-5.8,9.3l6.8,10.7
				c0.4,0.5,0.1,1.3-0.7,1.3l-5.8,0.4c-0.3,0-0.6-0.2-0.7-0.3l-6.7-11.2l-3,0.2l0.8,11.2c0,0.4-0.3,0.9-0.8,0.9l-5.2,0.4
				c-0.5,0-0.9-0.3-0.9-0.8L270.4,466.2z M284.6,477.5c1.8-0.1,3.2-1.9,3.1-3.8c-0.1-1.8-1.8-3.2-3.6-3.1l-6.5,0.5l0.5,6.8
				L284.6,477.5z"/>
			<path fill="#FFFFFF" d="M325,455.7c8.4-2.6,17.2,2,19.9,10.4c2.6,8.4-2,17.2-10.4,19.8c-8.4,2.6-17.2-2-19.8-10.4
				C312.1,467.2,316.6,458.4,325,455.7z M332.4,479.2c4.6-1.4,7.2-6.4,5.8-11c-1.4-4.6-6.4-7.3-11-5.8c-4.6,1.4-7.2,6.4-5.7,11.1
				C322.9,478.1,327.8,480.7,332.4,479.2z"/>
			<path fill="#FFFFFF" d="M357.2,444.1c-0.2-0.4-0.1-0.9,0.3-1.1l15.8-9.1c0.4-0.2,0.9-0.1,1.1,0.3l2.4,4.2
				c0.2,0.4,0.1,0.9-0.3,1.1l-10.6,6.1l3.2,5.5l8.7-5c0.4-0.2,0.9-0.1,1.1,0.3l2.4,4.2c0.2,0.4,0.1,0.9-0.3,1.1l-8.7,5l5.3,9.3
				c0.2,0.4,0.1,0.9-0.3,1.1l-4.5,2.6c-0.4,0.2-0.9,0.1-1.1-0.3L357.2,444.1z"/>
			<path fill="#FFFFFF" d="M389.2,423.1c-0.3-0.3-0.2-0.9,0.1-1.2l4.1-3.4c0.3-0.3,0.9-0.2,1.2,0.1l18.5,22.5
				c0.3,0.3,0.2,0.9-0.1,1.2l-4.1,3.4c-0.3,0.3-0.9,0.2-1.2-0.1L389.2,423.1z"/>
			<path fill="#FFFFFF" d="M416.9,404.8l-4.1,4.7c-0.3,0.4-0.8,0.4-1.2,0.1l-3.6-3.1c-0.3-0.3-0.4-0.8-0.1-1.2l12.8-14.7
				c0.3-0.4,0.8-0.4,1.2-0.1l3.6,3.2c0.3,0.3,0.4,0.8,0.1,1.2l-4.1,4.7l17.7,15.4c0.3,0.3,0.4,0.8,0.1,1.2l-3.5,4
				c-0.3,0.3-0.8,0.4-1.2,0.1L416.9,404.8z"/>
		</g>
	</g>
</g>
<g id="Dimension_Layer">
</g>
</svg>
